<svg width="3323" height="1612" viewBox="0 0 3323 1612" fill="none" xmlns="http://www.w3.org/2000/svg">
<path d="M1043.58 957.401H849V1H1043.58H1066.89L1337.53 649.527L1604.13 2.67888H1626.88V392.179L1413.95 923.264H1264.62L1043.58 392.179V957.401Z" fill="white"/>
<path d="M1858.24 957.401H1691.3V783.357H1858.24V957.401Z" fill="white"/>
<path d="M1691.3 2.67888H1858.24V187.915H1691.3V2.67888Z" fill="white"/>
<path d="M1858.24 391.059H1691.3V551.112H1858.24V471.086V391.059Z" fill="white"/>
<path d="M1933.58 180.08V2.67888H2115.43H2181.07C2181.07 2.67888 2271.16 6.45577 2328.07 44.6327C2374.16 75.5482 2407.05 130.203 2421.99 180.08C2434.25 221.01 2426.66 297.79 2426.66 297.79C2426.66 297.79 2414.41 355.538 2384.66 387.62C2341.77 433.862 2297.27 453.178 2297.27 453.178C2297.27 453.178 2385.62 484.951 2421.99 528.781C2458.81 573.161 2470.03 609.663 2473.33 667.235C2477.23 735.427 2464.66 780.764 2423.16 835.02C2423.16 835.02 2393.09 873.382 2368.91 892.184C2344.71 910.992 2328.12 917.788 2299.87 929.36L2299.49 929.516C2251.82 949.04 2221.98 954.175 2170.56 957.401C2149.07 958.749 2115.43 957.401 2115.43 957.401H1933.58V783.357H2086.97C2086.97 783.357 2256.08 797.907 2255 667.235C2253.91 536.562 2086.97 551.112 2086.97 551.112H1933.58V391.059H2086.97C2086.97 391.059 2215.43 406.169 2215.43 289.487C2215.43 172.805 2086.97 180.08 2086.97 180.08H1933.58Z" fill="white"/>
<path d="M1043.58 957.401H849V1H1043.58H1066.89L1337.53 649.527L1604.13 2.67888H1626.88V392.179L1413.95 923.264H1264.62L1043.58 392.179V957.401Z" stroke="white"/>
<path d="M1858.24 957.401H1691.3V783.357H1858.24V957.401Z" stroke="white"/>
<path d="M1691.3 2.67888H1858.24V187.915H1691.3V2.67888Z" stroke="white"/>
<path d="M1858.24 391.059H1691.3V551.112H1858.24V471.086V391.059Z" stroke="white"/>
<path d="M1933.58 180.08V2.67888H2115.43H2181.07C2181.07 2.67888 2271.16 6.45577 2328.07 44.6327C2374.16 75.5482 2407.05 130.203 2421.99 180.08C2434.25 221.01 2426.66 297.79 2426.66 297.79C2426.66 297.79 2414.41 355.538 2384.66 387.62C2341.77 433.862 2297.27 453.178 2297.27 453.178C2297.27 453.178 2385.62 484.951 2421.99 528.781C2458.81 573.161 2470.03 609.663 2473.33 667.235C2477.23 735.427 2464.66 780.764 2423.16 835.02C2423.16 835.02 2393.09 873.382 2368.91 892.184C2344.71 910.992 2328.12 917.788 2299.87 929.36L2299.49 929.516C2251.82 949.04 2221.98 954.175 2170.56 957.401C2149.07 958.749 2115.43 957.401 2115.43 957.401H1933.58V783.357H2086.97C2086.97 783.357 2256.08 797.907 2255 667.235C2253.91 536.562 2086.97 551.112 2086.97 551.112H1933.58V391.059H2086.97C2086.97 391.059 2215.43 406.169 2215.43 289.487C2215.43 172.805 2086.97 180.08 2086.97 180.08H1933.58Z" stroke="white"/>
<path d="M34.4 1497V1235H81.6L129.6 1368.2C132.533 1376.73 135.467 1385.53 138.4 1394.6C141.333 1403.4 144.267 1412.2 147.2 1421H148.8C151.733 1412.2 154.533 1403.4 157.2 1394.6C160.133 1385.53 163.067 1376.73 166 1368.2L213.2 1235H260.4V1497H222.8V1366.6C222.8 1358.6 223.067 1349.93 223.6 1340.6C224.4 1331 225.2 1321.4 226 1311.8C226.8 1302.2 227.467 1293.53 228 1285.8H226.4L205.6 1346.2L159.6 1471.4H134.4L88.4 1346.2L67.6 1285.8H66C66.5333 1293.53 67.2 1302.2 68 1311.8C68.8 1321.4 69.4667 1331 70 1340.6C70.8 1349.93 71.2 1358.6 71.2 1366.6V1497H34.4ZM529.322 1497V1235H684.122V1269.4H570.122V1343H666.522V1377.4H570.122V1462.6H688.122V1497H529.322ZM942.603 1497V1235H1010.6C1037.27 1235 1059.94 1239.93 1078.6 1249.8C1097.54 1259.67 1111.94 1274.33 1121.8 1293.8C1131.67 1313 1136.6 1336.73 1136.6 1365C1136.6 1393.27 1131.67 1417.27 1121.8 1437C1111.94 1456.73 1097.8 1471.67 1079.4 1481.8C1061 1491.93 1038.74 1497 1012.6 1497H942.603ZM983.403 1463.8H1007.8C1026.74 1463.8 1042.6 1460.07 1055.4 1452.6C1068.2 1445.13 1077.94 1434.2 1084.6 1419.8C1091.27 1405.13 1094.6 1386.87 1094.6 1365C1094.6 1343.13 1091.27 1325.13 1084.6 1311C1077.94 1296.6 1068.2 1285.93 1055.4 1279C1042.6 1271.8 1026.74 1268.2 1007.8 1268.2H983.403V1463.8ZM1490.64 1501.8C1468.24 1501.8 1448.51 1496.33 1431.44 1485.4C1414.37 1474.2 1400.91 1458.33 1391.04 1437.8C1381.44 1417.27 1376.64 1393 1376.64 1365C1376.64 1336.73 1381.44 1312.6 1391.04 1292.6C1400.91 1272.33 1414.37 1256.87 1431.44 1246.2C1448.51 1235.53 1468.24 1230.2 1490.64 1230.2C1513.04 1230.2 1532.77 1235.53 1549.84 1246.2C1566.91 1256.87 1580.24 1272.33 1589.84 1292.6C1599.71 1312.6 1604.64 1336.73 1604.64 1365C1604.64 1393 1599.71 1417.27 1589.84 1437.8C1580.24 1458.33 1566.91 1474.2 1549.84 1485.4C1532.77 1496.33 1513.04 1501.8 1490.64 1501.8ZM1490.64 1466.2C1505.31 1466.2 1517.97 1462.07 1528.64 1453.8C1539.57 1445.53 1547.97 1433.8 1553.84 1418.6C1559.71 1403.4 1562.64 1385.53 1562.64 1365C1562.64 1344.47 1559.71 1326.87 1553.84 1312.2C1547.97 1297.27 1539.57 1285.8 1528.64 1277.8C1517.97 1269.8 1505.31 1265.8 1490.64 1265.8C1475.97 1265.8 1463.17 1269.8 1452.24 1277.8C1441.57 1285.8 1433.31 1297.27 1427.44 1312.2C1421.57 1326.87 1418.64 1344.47 1418.64 1365C1418.64 1385.53 1421.57 1403.4 1427.44 1418.6C1433.31 1433.8 1441.57 1445.53 1452.24 1453.8C1463.17 1462.07 1475.97 1466.2 1490.64 1466.2ZM1859.01 1497V1235H1940.21C1958.08 1235 1973.94 1237.13 1987.81 1241.4C2001.68 1245.4 2012.48 1252.2 2020.21 1261.8C2028.21 1271.13 2032.21 1283.67 2032.21 1299.4C2032.21 1311.93 2028.88 1323.53 2022.21 1334.2C2015.81 1344.87 2006.74 1352.2 1995.01 1356.2V1357.8C2009.94 1360.73 2022.21 1367.4 2031.81 1377.8C2041.68 1388.2 2046.61 1402.33 2046.61 1420.2C2046.61 1437.53 2042.21 1451.93 2033.41 1463.4C2024.88 1474.6 2013.01 1483 1997.81 1488.6C1982.88 1494.2 1965.81 1497 1946.61 1497H1859.01ZM1899.81 1465H1941.81C1962.61 1465 1978.61 1461.27 1989.81 1453.8C2001.01 1446.07 2006.61 1434.2 2006.61 1418.2C2006.61 1403.27 2001.01 1392.47 1989.81 1385.8C1978.88 1378.87 1962.88 1375.4 1941.81 1375.4H1899.81V1465ZM1899.81 1344.6H1935.41C1955.41 1344.6 1969.81 1341 1978.61 1333.8C1987.68 1326.6 1992.21 1317 1992.21 1305C1992.21 1291.13 1987.54 1281.4 1978.21 1275.8C1968.88 1269.93 1955.01 1267 1936.61 1267H1899.81V1344.6ZM2339.32 1497V1397.8L2260.52 1235H2304.12L2334.92 1305C2338.92 1314.87 2342.79 1324.47 2346.52 1333.8C2350.52 1343.13 2354.65 1352.73 2358.92 1362.6H2360.52C2365.05 1352.73 2369.32 1343.13 2373.32 1333.8C2377.59 1324.47 2381.72 1314.87 2385.72 1305L2416.52 1235H2458.92L2380.12 1397.8V1497H2339.32ZM2745.81 1497V1269.4H2668.61V1235H2863.81V1269.4H2786.61V1497H2745.81ZM3109.01 1497V1235H3263.81V1269.4H3149.81V1343H3246.21V1377.4H3149.81V1462.6H3267.81V1497H3109.01Z" fill="white"/>
</svg>
